# xmcd
#
# Track frame offsets: 
#        150
#        16602
#        33974
#        49759
#
# Disc length: 788 seconds
#
# Revision: 0
# Processed by: cddbd v1.5.2PL0 Copyright (c) Steve Scherf et al.
# Submitted via: ExactAudioCopy v0.95b3
#
DISCID=21031204
DTITLE=Fi Zemenay - A Difference (Demo)
DYEAR=1900
DGENRE=Blues
TTITLE0=Broken
TTITLE1=Treat The People
TTITLE2=This Mind Of Mine
TTITLE3=Ain't No Sunshine
EXTD=
EXTT0=
EXTT1=
EXTT2=
EXTT3=
PLAYORDER=
